# 3ds Max Wavefront OBJ Exporter v0.97b - (c)2007 guruware
# File Created: 19.05.2019 18:23:39

mtllib CristalFalso.mtl

#
# object Diamonds1_Diamond_R2
#

v  1.9500 21.7097 -7.1662
v  -1.8864 21.7097 -7.1662
v  -3.7388 24.9462 -4.0739
v  3.8023 24.9462 -4.0739
v  -6.3575 22.2558 -4.0739
v  -3.2118 20.3303 -7.1662
v  -3.2118 8.1855 -7.1662
v  -6.3575 6.2441 -4.0739
v  -1.8864 6.8528 -7.1662
v  -3.7388 3.6321 -4.0739
v  1.9500 6.8528 -7.1662
v  3.8023 3.6321 -4.0739
v  6.4211 6.2441 -4.0739
v  3.2753 8.1855 -7.1662
v  3.2753 20.3303 -7.1662
v  6.4211 22.2558 -4.0739
v  -5.2598 27.6493 1.7692
v  -4.4838 26.2554 2.7640
v  4.5474 26.2554 2.7640
v  5.3234 27.6493 1.7691
v  -8.9311 23.8646 1.7733
v  -7.6113 23.0909 2.7660
v  -8.9316 4.6834 1.7730
v  -7.6115 5.4688 2.7659
v  -5.2598 1.0073 1.7691
v  -4.4838 2.4017 2.7640
v  5.3234 1.0073 1.7691
v  4.5474 2.4017 2.7640
v  8.9951 4.6834 1.7730
v  7.6751 5.4688 2.7659
v  8.9946 23.8646 1.7733
v  7.6748 23.0909 2.7660
v  0.0318 18.3479 -9.5436
v  0.0318 10.3829 -9.5437
v  -5.8580 28.6329 0.4077
v  5.9215 28.6329 0.4077
v  -9.9565 24.3579 0.4055
v  -9.9570 4.1812 0.4061
v  -5.8580 0.0220 0.4079
v  5.9216 0.0220 0.4079
v  10.0205 4.1812 0.4061
v  10.0200 24.3579 0.4055
v  -5.8639 28.6483 0.8243
v  5.9275 28.6483 0.8243
v  -9.9594 24.3710 0.8303
v  -9.9601 4.1673 0.8298
v  -5.8639 0.0067 0.8243
v  5.9275 0.0067 0.8243
v  10.0236 4.1673 0.8298
v  10.0229 24.3710 0.8303
v  -3.4932 24.2530 3.7099
v  3.5568 24.2530 3.7099
v  -5.9287 21.8543 3.7099
v  -5.9287 6.7192 3.7099
v  -3.4932 4.4017 3.7099
v  3.5568 4.4017 3.7099
v  5.9922 6.7192 3.7099
v  5.9922 21.8543 3.7099
v  0.0318 14.3138 3.7099
# 59 vertices

vn 0.0000 0.6908 -0.7230
vn -0.4686 0.4541 -0.7577
vn -0.7010 0.0000 -0.7131
vn -0.4614 -0.4613 -0.7579
vn 0.0000 -0.6926 -0.7213
vn 0.4614 -0.4613 -0.7579
vn 0.7010 0.0000 -0.7131
vn 0.4686 0.4541 -0.7577
vn 0.0000 0.5809 0.8140
vn -0.3931 0.3854 0.8348
vn -0.6011 0.0000 0.7992
vn -0.3865 -0.3904 0.8356
vn 0.0000 -0.5808 0.8141
vn 0.3865 -0.3904 0.8356
vn 0.6011 0.0000 0.7992
vn 0.3931 0.3854 0.8348
vn 0.0000 0.5774 -0.8165
vn 0.3889 0.3737 -0.8421
vn 0.5912 0.0000 -0.8065
vn 0.3726 -0.3705 -0.8508
vn 0.0000 -0.5586 -0.8294
vn -0.3726 -0.3705 -0.8508
vn -0.5912 0.0000 -0.8065
vn -0.3889 0.3737 -0.8421
vn 0.0000 0.7723 -0.6353
vn -0.5329 0.5141 -0.6721
vn -0.7796 0.0000 -0.6263
vn -0.5279 -0.5239 -0.6685
vn 0.0000 -0.7788 -0.6273
vn 0.5279 -0.5239 -0.6685
vn 0.7796 0.0000 -0.6263
vn 0.5329 0.5141 -0.6721
vn 0.0000 0.9993 -0.0367
vn -0.7217 0.6915 -0.0310
vn -1.0000 0.0000 -0.0072
vn -0.7121 -0.7014 -0.0321
vn 0.0000 -0.9993 -0.0369
vn 0.7121 -0.7014 -0.0321
vn 1.0000 0.0000 -0.0072
vn 0.7217 0.6915 -0.0310
vn 0.0000 0.4272 0.9042
vn 0.0000 0.6872 0.7265
vn -0.2911 0.2914 0.9112
vn -0.4661 0.4500 0.7618
vn -0.4893 0.0000 0.8721
vn -0.6759 0.0000 0.7370
vn -0.2855 -0.2953 0.9117
vn -0.4588 -0.4557 0.7628
vn 0.0000 -0.4276 0.9040
vn 0.0000 -0.6865 0.7271
vn 0.2855 -0.2953 0.9117
vn 0.4588 -0.4557 0.7628
vn 0.4893 0.0000 0.8721
vn 0.6759 0.0000 0.7370
vn 0.2911 0.2914 0.9112
vn 0.4661 0.4500 0.7618
vn 0.0000 0.0000 1.0000
# 57 vertex normals

vt 18.9985 73.7110 0.0000
vt -18.9985 73.7110 0.0000
vt -37.3445 105.7660 0.0000
vt 37.3445 105.7660 0.0000
vt -63.2808 79.1200 0.0000
vt -32.1247 60.0494 0.0000
vt -32.1247 -60.2355 0.0000
vt -63.2808 -79.4629 0.0000
vt -18.9985 -73.4350 0.0000
vt -37.3445 -105.3333 0.0000
vt 18.9985 -73.4350 0.0000
vt 37.3445 -105.3333 0.0000
vt 63.2808 -79.4629 0.0000
vt 32.1247 -60.2355 0.0000
vt 32.1247 60.0493 0.0000
vt 63.2808 79.1199 0.0000
vt -52.4094 132.5381 0.0000
vt -44.7235 118.7326 0.0000
vt 44.7234 118.7326 0.0000
vt 52.4094 132.5381 0.0000
vt -88.7700 95.0541 0.0000
vt -75.6984 87.3906 0.0000
vt -88.7748 -94.9211 0.0000
vt -75.7008 -87.1422 0.0000
vt -52.4094 -131.3294 0.0000
vt -44.7234 -117.5199 0.0000
vt 52.4094 -131.3294 0.0000
vt 44.7234 -117.5199 0.0000
vt 88.7748 -94.9212 0.0000
vt 75.7008 -87.1422 0.0000
vt 88.7700 95.0541 0.0000
vt 75.6984 87.3906 0.0000
vt -0.0000 40.4151 0.0000
vt 0.0000 -38.4721 0.0000
vt -58.3332 142.2804 0.0000
vt 58.3332 142.2804 0.0000
vt -98.9255 99.9399 0.0000
vt -98.9306 -99.8949 0.0000
vt -58.3342 -141.0882 0.0000
vt 58.3342 -141.0882 0.0000
vt 98.9306 -99.8949 0.0000
vt 98.9255 99.9399 0.0000
vt -58.3925 142.4322 0.0000
vt 58.3925 142.4322 0.0000
vt -98.9547 100.0693 0.0000
vt -98.9615 -100.0328 0.0000
vt -58.3925 -141.2403 0.0000
vt 58.3925 -141.2404 0.0000
vt 98.9615 -100.0328 0.0000
vt 98.9547 100.0693 0.0000
vt -34.9124 98.9006 0.0000
vt 34.9124 98.9006 0.0000
vt -59.0337 75.1434 0.0000
vt -59.0337 -74.7580 0.0000
vt -34.9123 -97.7115 0.0000
vt 34.9124 -97.7115 0.0000
vt 59.0337 -74.7580 0.0000
vt 59.0337 75.1434 0.0000
vt 0.0000 0.3936 0.0000
# 59 texture coords

g Diamonds1_Diamond_R2
usemtl _Cristallambert2SG
s off
f 1/1/1 2/2/1 3/3/1 
f 3/3/1 4/4/1 1/1/1 
f 5/5/2 3/3/2 2/2/2 
f 2/2/2 6/6/2 5/5/2 
f 6/6/3 7/7/3 8/8/3 
f 8/8/3 5/5/3 6/6/3 
f 8/8/4 7/7/4 9/9/4 
f 9/9/4 10/10/4 8/8/4 
f 9/9/5 11/11/5 12/12/5 
f 12/12/5 10/10/5 9/9/5 
f 13/13/6 12/12/6 11/11/6 
f 11/11/6 14/14/6 13/13/6 
f 14/14/7 15/15/7 16/16/7 
f 16/16/7 13/13/7 14/14/7 
f 16/16/8 15/15/8 1/1/8 
f 1/1/8 4/4/8 16/16/8 
f 17/17/9 18/18/9 19/19/9 
f 19/19/9 20/20/9 17/17/9 
f 18/18/10 17/17/10 21/21/10 
f 21/21/10 22/22/10 18/18/10 
f 23/23/11 24/24/11 22/22/11 
f 22/22/11 21/21/11 23/23/11 
f 23/23/12 25/25/12 26/26/12 
f 26/26/12 24/24/12 23/23/12 
f 27/27/13 28/28/13 26/26/13 
f 26/26/13 25/25/13 27/27/13 
f 28/28/14 27/27/14 29/29/14 
f 29/29/14 30/30/14 28/28/14 
f 31/31/15 32/32/15 30/30/15 
f 30/30/15 29/29/15 31/31/15 
f 31/31/16 20/20/16 19/19/16 
f 19/19/16 32/32/16 31/31/16 
f 2/2/17 1/1/17 33/33/17 
f 1/1/18 15/15/18 33/33/18 
f 34/34/19 33/33/19 15/15/19 
f 15/15/19 14/14/19 34/34/19 
f 14/14/20 11/11/20 34/34/20 
f 11/11/21 9/9/21 34/34/21 
f 9/9/22 7/7/22 34/34/22 
f 34/34/23 7/7/23 6/6/23 
f 6/6/23 33/33/23 34/34/23 
f 6/6/24 2/2/24 33/33/24 
f 3/3/25 35/35/25 36/36/25 
f 36/36/25 4/4/25 3/3/25 
f 3/3/26 5/5/26 37/37/26 
f 37/37/26 35/35/26 3/3/26 
f 8/8/27 38/38/27 37/37/27 
f 37/37/27 5/5/27 8/8/27 
f 8/8/28 10/10/28 39/39/28 
f 39/39/28 38/38/28 8/8/28 
f 12/12/29 40/40/29 39/39/29 
f 39/39/29 10/10/29 12/12/29 
f 13/13/30 41/41/30 40/40/30 
f 40/40/30 12/12/30 13/13/30 
f 16/16/31 42/42/31 41/41/31 
f 41/41/31 13/13/31 16/16/31 
f 42/42/32 16/16/32 4/4/32 
f 4/4/32 36/36/32 42/42/32 
f 36/36/33 35/35/33 43/43/33 
f 43/43/33 44/44/33 36/36/33 
f 35/35/34 37/37/34 45/45/34 
f 45/45/34 43/43/34 35/35/34 
f 37/37/35 38/38/35 46/46/35 
f 46/46/35 45/45/35 37/37/35 
f 38/38/36 39/39/36 47/47/36 
f 47/47/36 46/46/36 38/38/36 
f 39/39/37 40/40/37 48/48/37 
f 48/48/37 47/47/37 39/39/37 
f 40/40/38 41/41/38 49/49/38 
f 49/49/38 48/48/38 40/40/38 
f 41/41/39 42/42/39 50/50/39 
f 50/50/39 49/49/39 41/41/39 
f 42/42/40 36/36/40 44/44/40 
f 44/44/40 50/50/40 42/42/40 
f 18/18/41 51/51/41 52/52/41 
f 52/52/41 19/19/41 18/18/41 
f 20/20/42 44/44/42 43/43/42 
f 43/43/42 17/17/42 20/20/42 
f 51/51/43 18/18/43 22/22/43 
f 22/22/43 53/53/43 51/51/43 
f 21/21/44 17/17/44 43/43/44 
f 43/43/44 45/45/44 21/21/44 
f 24/24/45 54/54/45 53/53/45 
f 53/53/45 22/22/45 24/24/45 
f 21/21/46 45/45/46 46/46/46 
f 46/46/46 23/23/46 21/21/46 
f 24/24/47 26/26/47 55/55/47 
f 55/55/47 54/54/47 24/24/47 
f 23/23/48 46/46/48 47/47/48 
f 47/47/48 25/25/48 23/23/48 
f 28/28/49 56/56/49 55/55/49 
f 55/55/49 26/26/49 28/28/49 
f 25/25/50 47/47/50 48/48/50 
f 48/48/50 27/27/50 25/25/50 
f 56/56/51 28/28/51 30/30/51 
f 30/30/51 57/57/51 56/56/51 
f 29/29/52 27/27/52 48/48/52 
f 48/48/52 49/49/52 29/29/52 
f 32/32/53 58/58/53 57/57/53 
f 57/57/53 30/30/53 32/32/53 
f 29/29/54 49/49/54 50/50/54 
f 50/50/54 31/31/54 29/29/54 
f 32/32/55 19/19/55 52/52/55 
f 52/52/55 58/58/55 32/32/55 
f 31/31/56 50/50/56 44/44/56 
f 44/44/56 20/20/56 31/31/56 
f 55/55/57 56/56/57 59/59/57 
f 56/56/57 57/57/57 59/59/57 
f 57/57/57 58/58/57 59/59/57 
f 58/58/57 52/52/57 59/59/57 
f 52/52/57 51/51/57 59/59/57 
f 51/51/57 53/53/57 59/59/57 
f 53/53/57 54/54/57 59/59/57 
f 54/54/57 55/55/57 59/59/57 
# 114 faces

